# xmcd
#
# Track frame offsets: 
#        150
#        13135
#        22724
#        32351
#        39743
#        45588
#        57509
#        69901
#        74314
#        79879
#        92544
#        104267
#        115883
#        129708
#        142837
#        154357
#        159920
#        162592
#        167812
#        179758
#        192132
#
# Disc length: 2738 seconds
#
# Revision: 0
# Processed by: cddbd v1.5PL3 Copyright (c) Steve Scherf et al.
# Submitted via: ExactAudioCopy v0.95a5
#
DISCID=160ab015
DTITLE=Moron Brothers - Lardo and Burley On Tour
DYEAR=2002
DGENRE=Bluegrass
TTITLE0=Our ( Grand Old Opry ) Song
TTITLE1=Little Rock Getaway
TTITLE2=Colby
TTITLE3=Back Trouble
TTITLE4=Mixed Up
TTITLE5=Greenville Trestle
TTITLE6=Preatcher and the bear
TTITLE7=The Neighbor
TTITLE8=Wisk Broom
TTITLE9=Brown Shack Out Back
TTITLE10=Quarter Song
TTITLE11=I'm My Own Grandpa
TTITLE12=Ive Been Everywhere
TTITLE13=Old Stone Church House
TTITLE14=Dear Boss
TTITLE15=The Artist
TTITLE16=Porta John
TTITLE17=Town Deputy
TTITLE18=Rooster Song
TTITLE19=Kentucky
TTITLE20=Uncle Bill
EXTD=
EXTT0=
EXTT1=
EXTT2=
EXTT3=
EXTT4=
EXTT5=
EXTT6=
EXTT7=
EXTT8=
EXTT9=
EXTT10=
EXTT11=
EXTT12=
EXTT13=
EXTT14=
EXTT15=
EXTT16=
EXTT17=
EXTT18=
EXTT19=
EXTT20=
PLAYORDER=
